<?xml version="1.0" encoding="utf-8"?>
<!-- Generator: Adobe Illustrator 19.1.0, SVG Export Plug-In . SVG Version: 6.00 Build 0)  -->
<svg version="1.1" xmlns="http://www.w3.org/2000/svg" xmlns:xlink="http://www.w3.org/1999/xlink" x="0px" y="0px"
	 viewBox="0 0 270.6 270.6" enable-background="new 0 0 270.6 270.6" xml:space="preserve">
<g id="SCIENCE_RESEARCH">
</g>
<g id="SKILL_DEVELOPMENT">
</g>
<g id="SHARE_IDEAS">
</g>
<g id="INNOVATION">
</g>
<g id="MATHS">
</g>
<g id="LANGUAGE_LEARNING">
</g>
<g id="E-LEARNING">
</g>
<g id="EDUCATION_APPS">
</g>
<g id="POTENTIAL">
</g>
<g id="CERTIFICATE">
</g>
<g id="ONLINE_TESTS">
</g>
<g id="TIMETABLE">
	<rect fill="#5EB4E7" width="270.6" height="270.6"/>
	<g>
		<g>
			<g>
				<path fill="#282D33" d="M197.5,162.5h-72.5v-4h68.5V88c0-0.8-0.6-1.4-1.4-1.4H75c-0.8,0-1.4,0.6-1.4,1.4v50.9h-4V88
					c0-3,2.4-5.4,5.4-5.4h117.2c3,0,5.4,2.4,5.4,5.4V162.5z"/>
			</g>
			<rect x="79.3" y="92.4" fill="#2E95D1" width="108.4" height="60.1"/>
			<g>
				<path fill="#282D33" d="M192.4,177.1h-67.3v-4h67.3c0.7,0,1.2-1.1,1.2-2.1v-10.6h4V171C197.6,174,195.6,177.1,192.4,177.1z"/>
			</g>
			<g>
				<path fill="#282D33" d="M152.2,193.2c-1-0.5-2.5-1.1-3.4-1.6l-0.1-0.1c-2-1.1-2.5-1.9-3-4.7c-0.4-1.9-0.3-4.7-0.3-7.4
					c0-1.5,0-3,0-3.9l4-0.3c0.1,1.1,0.1,2.6,0,4.3c0,2.4-0.1,5,0.2,6.6c0.2,1.2,0.4,1.6,0.4,1.7c0.1,0,0.4,0.2,0.6,0.4l0.1,0.1
					c0.6,0.3,1.7,0.8,3,1.4L152.2,193.2z"/>
			</g>
			<g>
				<rect x="125.1" y="189.1" fill="#282D33" width="31.5" height="4"/>
			</g>
		</g>
		<g>
			<g>
				<path fill="#282D33" d="M137.7,142.5c-13.1,0-23.7-10.6-23.7-23.7s10.6-23.7,23.7-23.7s23.7,10.6,23.7,23.7
					S150.7,142.5,137.7,142.5z M137.7,99.1c-10.9,0-19.7,8.8-19.7,19.7s8.8,19.7,19.7,19.7s19.7-8.8,19.7-19.7
					S148.5,99.1,137.7,99.1z"/>
			</g>
			<g>
				<polygon fill="#282D33" points="132.8,127.6 125.7,120.4 128.5,117.6 132.8,121.9 146.7,108 149.5,110.9 				"/>
			</g>
		</g>
		<g>
			<g>
				<polygon fill="#282D33" points="121.6,198.9 48.5,198.9 48.5,158.3 52.5,158.3 52.5,194.9 117.6,194.9 117.6,158.3 121.6,158.3 
									"/>
			</g>
			<rect x="48.1" y="142.5" fill="#FFFFFF" width="73.9" height="16"/>
			<g>
				<g>
					<rect x="59.8" y="137.1" fill="#282D33" width="4" height="12.3"/>
				</g>
				<g>
					<rect x="106.3" y="137.1" fill="#282D33" width="4" height="12.3"/>
				</g>
			</g>
			<g>
				<g>
					<g>
						<g>
							<rect x="60.3" y="165.1" fill="#282D33" width="4.7" height="4"/>
						</g>
						<g>
							<rect x="69.1" y="165.1" fill="#282D33" width="4.7" height="4"/>
						</g>
						<g>
							<rect x="77.9" y="165.1" fill="#282D33" width="4.7" height="4"/>
						</g>
						<g>
							<rect x="86.7" y="165.1" fill="#282D33" width="4.7" height="4"/>
						</g>
						<g>
							<rect x="95.6" y="165.1" fill="#282D33" width="4.7" height="4"/>
						</g>
						<g>
							<rect x="104.4" y="165.1" fill="#282D33" width="4.7" height="4"/>
						</g>
					</g>
				</g>
				<g>
					<g>
						<g>
							<rect x="60.3" y="174.2" fill="#282D33" width="4.7" height="4"/>
						</g>
						<g>
							<rect x="69.1" y="174.2" fill="#282D33" width="4.7" height="4"/>
						</g>
						<g>
							<rect x="77.9" y="174.2" fill="#282D33" width="4.7" height="4"/>
						</g>
						<g>
							<rect x="86.7" y="174.2" fill="#282D33" width="4.7" height="4"/>
						</g>
						<g>
							<rect x="95.6" y="174.2" fill="#282D33" width="4.7" height="4"/>
						</g>
						<g>
							<rect x="104.4" y="174.2" fill="#282D33" width="4.7" height="4"/>
						</g>
					</g>
				</g>
				<g>
					<g>
						<g>
							<rect x="60.3" y="183.3" fill="#282D33" width="4.7" height="4"/>
						</g>
						<g>
							<rect x="69.1" y="183.3" fill="#282D33" width="4.7" height="4"/>
						</g>
						<g>
							<rect x="77.9" y="183.3" fill="#282D33" width="4.7" height="4"/>
						</g>
						<g>
							<rect x="86.7" y="183.3" fill="#282D33" width="4.7" height="4"/>
						</g>
						<g>
							<rect x="95.6" y="183.3" fill="#282D33" width="4.7" height="4"/>
						</g>
						<g>
							<rect x="104.4" y="183.3" fill="#282D33" width="4.7" height="4"/>
						</g>
					</g>
				</g>
			</g>
		</g>
		<g>
			<path fill="#FFFFFF" d="M225.6,126.3l0-39.2c0-2.7-2.2-4.9-4.9-4.9h-2.1c-2.7,0-4.9,2.2-4.9,4.9l0,39.2H225.6z"/>
			<path fill="#FFFFFF" d="M224.1,166.7v-48c0-2.7-1.7-4.9-3.8-4.9h-1.6c-2.1,0-3.8,2.2-3.8,4.9v48H224.1z"/>
			<g>
				<path fill="#282D33" d="M209.9,119.7h-4V96.4c0-3.8,3.1-6.9,6.9-6.9h12.8v4h-12.8c-1.6,0-2.9,1.3-2.9,2.9V119.7z"/>
			</g>
			<g>
				<rect x="213.6" y="124.5" fill="#282D33" width="12.2" height="4"/>
			</g>
			<g>
				<rect x="213.6" y="164.6" fill="#282D33" width="12.2" height="4"/>
			</g>
			<g>
				<g>
					<path fill="#282D33" d="M221.7,182.5h-4c0-2.8-1.4-6.3-2.2-6.7l-1.5-0.4l0.1-1.5v-6.1h4v5C220.6,174.8,221.7,179.9,221.7,182.5
						z"/>
				</g>
				<g>
					<path fill="#282D33" d="M221.7,182.5h-4c0-2.6,1.1-7.7,3.6-9.8v-5h4v7.7l-1.5,0.4C223.1,176.2,221.7,179.7,221.7,182.5z"/>
				</g>
			</g>
		</g>
		<g>
			<g>
				<rect x="106.1" y="41" fill="#282D33" width="70.6" height="4"/>
			</g>
			<g>
				<rect x="106.1" y="49.2" fill="#282D33" width="58.6" height="4"/>
			</g>
			<g>
				<polygon fill="#282D33" points="94.3,52.3 89.4,47.8 92.1,44.9 93.8,46.5 99.7,39.1 102.8,41.6 				"/>
			</g>
			<g>
				<rect x="106.1" y="62.4" fill="#282D33" width="70.6" height="4"/>
			</g>
			<g>
				<rect x="106.1" y="70.6" fill="#282D33" width="58.6" height="4"/>
			</g>
			<g>
				<polygon fill="#282D33" points="94.3,73.8 89.4,69.3 92.1,66.3 93.8,67.9 99.7,60.6 102.8,63.1 				"/>
			</g>
		</g>
	</g>
</g>
<g id="DISTANCE_EDUCATION">
</g>
<g id="VIDEO_TUTORIALS">
</g>
<g id="LIBRARY">
</g>
<g id="ONLINE_TRAINING__x26__COURSES">
</g>
</svg>
